# xmcd
#
# Track frame offsets: 
#        150
#        13265
#        29885
#        43300
#        56415
#        68225
#        82707
#        100212
#        112570
#        125477
#
# Disc length: 1883 seconds
#
# Revision: 3
# Processed by: cddbd v1.5.1PL2 Copyright (c) Steve Scherf et al.
# Submitted via: ExactAudioCopy v0.90b4
#
DISCID=7f07590a
DTITLE=Cledus "T." Judd (No Relation) - Did I Shave My Back For This?
DYEAR=1998
DGENRE=
TTITLE0=Wives Do It All The Time
TTITLE1=First Redneck On The Internet
TTITLE2=Every Bulb In The House Is Blown
TTITLE3=Third Rock From Her Thumb
TTITLE4=Mindy McCready
TTITLE5=Did I Shave My Back For This
TTITLE6=Hankenstein
TTITLE7=Hip Hop and Honky Tonk
TTITLE8=Psychic To The Stars
TTITLE9=Cledus Don't Stop Eatin' For Nuthin'
EXTD=
EXTT0=
EXTT1=
EXTT2=
EXTT3=
EXTT4=
EXTT5=
EXTT6=
EXTT7=
EXTT8=
EXTT9=
PLAYORDER=
